<?xml version="1.0" encoding="UTF-8"?>
<svg width="335px" height="134px" viewBox="0 0 335 134" version="1.1" xmlns="http://www.w3.org/2000/svg" xmlns:xlink="http://www.w3.org/1999/xlink">
    <!-- Generator: Sketch 63.1 (92452) - https://sketch.com -->
    <title>Wenu</title>
    <desc>Created with Sketch.</desc>
    <g id="Page-1" stroke="none" stroke-width="1" fill="none" fill-rule="evenodd">
        <path d="M98.6377783,123.658566 C106.896471,122.369241 114.591642,116.886892 121.723293,107.21152 C128.854944,97.5361472 134.41665,85.9110432 138.408414,72.3362077 C144.005312,72.5924446 150.195057,72.1476611 156.977647,71.0018572 C159.802947,70.473855 161.746059,69.2578011 162.806984,67.3536956 C163.867909,65.44959 164.221239,63.3951807 163.866976,61.1904675 C163.648968,59.8337209 163.020189,58.8018743 161.98064,58.0949277 C160.94109,57.387981 159.431993,57.1889581 157.453348,57.497859 C151.517413,58.4245615 146.294415,58.8488048 141.784355,58.7705889 C144.11941,46.4105567 144.517096,35.4395292 142.977414,25.8575066 C141.887374,19.0737737 139.415941,13.9834055 135.563116,10.5864018 C131.710291,7.18939806 127.030981,5.9206713 121.525186,6.78022149 C117.051728,7.47860601 113.170847,9.25795071 109.882543,12.1182556 C106.59424,14.9785605 104.26754,18.8839452 102.902442,23.8344097 C101.537345,28.7848743 101.393004,34.6095747 102.469419,41.3085109 C103.545834,48.007447 105.829647,53.7138418 109.32086,58.4276951 C112.812072,63.1415485 117.440419,66.6999823 123.205899,69.1029967 C120.462079,78.9191291 117.046266,87.2972732 112.95846,94.2374289 C108.870654,101.177585 104.762078,104.969994 100.632732,105.614656 C97.1055821,106.165306 94.1821656,105.122266 91.8624827,102.485536 C89.5427998,99.8488063 87.6107115,95.782516 86.0662179,90.2866649 C84.5217242,84.7908139 82.9932619,77.3366737 81.480831,67.9242443 C79.2598738,54.1023887 78.2433093,40.0925064 78.4311374,25.8945975 C78.480564,25.1045666 78.3962732,24.0311779 78.1782652,22.6744313 C77.8103765,20.3849215 76.9107567,18.76516 75.4794057,17.815147 C74.0480547,16.8651339 71.9989445,16.5982996 69.332075,17.0146443 C66.1490372,17.5115717 63.75194,18.6463838 62.1407833,20.4190805 C60.5296266,22.1917772 59.6933227,25.0821706 59.6318715,29.0902608 C59.4320187,46.5062289 58.2088478,61.6698183 55.9623588,74.5810288 C53.7158698,87.4922394 50.9641684,97.3965261 47.7072546,104.293889 C44.4503408,111.191252 41.3163931,114.874967 38.3054114,115.345033 C34.9503175,115.868822 31.7861171,113.190088 28.8128102,107.308833 C25.8395033,101.427577 23.4399411,92.8055733 21.6141235,81.4428208 C19.6520509,69.2321017 18.9097258,45.5656476 18.6973389,27.779418 C18.5968849,26.0566238 18.4989687,24.8984385 18.4035901,24.3048618 C17.9266975,21.3369787 16.889954,19.4126602 15.2933597,18.5319064 C13.6967653,17.6511526 11.6080474,17.4122328 9.02720599,17.815147 C5.58608408,18.3523658 3.20261234,19.5719746 1.87679079,21.4739732 C0.550969237,23.3759718 -0.0724021014,26.4938942 0.00667677414,30.8277406 C0.168036271,46.1011451 0.905285889,68.6383817 2.90823501,81.1034908 C5.66058686,98.2324162 9.95857383,111.534433 15.8021959,121.009541 C21.645818,130.484649 28.6969754,134.57754 36.955668,133.288215 C44.268052,132.146624 50.5927189,127.464971 55.9296687,119.243254 C61.2666184,111.021538 65.3305159,99.1304555 68.121361,83.5700083 C70.7767335,96.8025012 74.6340291,107.087521 79.6932478,114.425068 C84.7524666,121.762615 91.06731,124.840448 98.6377783,123.658566 Z M128.00831,52.5198607 C121.216459,49.5520264 117.072274,44.1400465 115.575755,36.2839209 C114.69006,31.6343771 114.826226,27.9390907 115.984254,25.1980616 C117.142281,22.4570324 119.022895,20.9151109 121.626095,20.5722968 C123.457976,20.3310573 125.053086,20.9222094 126.411426,22.345753 C127.769766,23.7692967 128.769618,26.1645241 129.410984,29.531435 C130.525738,35.383447 130.05818,43.0462555 128.00831,52.5198607 Z M181.6188,91.3343535 C189.806939,91.3343535 197.489966,89.3442615 204.66788,85.3640775 C211.845794,81.3838935 217.402031,77.0371136 221.336591,72.3237378 C223.357041,70.0194207 224.367266,66.7724285 224.367266,62.5827611 C224.367266,60.3831858 223.968493,58.654948 223.170947,57.3980478 C222.373401,56.1411475 221.283422,55.5126974 219.901008,55.5126974 C218.305916,55.5126974 216.870334,56.2458892 215.59426,57.7122728 C211.128002,63.0540987 205.837614,67.3746932 199.723094,70.6740562 C193.608575,73.9734193 188.158677,75.6231008 183.373401,75.6231008 C175.929638,75.6231008 170.878514,73.2140421 168.220027,68.3959246 C180.768084,65.3584158 189.674015,61.2473047 194.937818,56.0625913 C200.201622,50.8778779 202.833524,44.6719331 202.833524,37.4447569 C202.833524,31.2649975 200.972583,26.3683238 197.250702,22.7547356 C193.52882,19.1411475 188.584035,17.3343535 182.416346,17.3343535 C175.50428,17.3343535 169.310006,19.167333 163.833524,22.8332919 C158.357041,26.4992509 154.076878,31.4482955 150.993033,37.6804257 C147.909188,43.9125559 146.367266,50.6422091 146.367266,57.8693853 C146.367266,68.2388121 149.451111,76.4086635 155.6188,82.3789395 C161.786489,88.3492155 170.453156,91.3343535 181.6188,91.3343535 Z M167,54.5198607 L167,54.2379815 C167,48.5064379 168.204724,43.6205318 170.614173,39.5802634 C173.023622,35.5399949 175.976378,33.5198607 179.472441,33.5198607 C181.173228,33.5198607 182.519685,34.0601291 183.511811,35.1406661 C184.503937,36.221203 185,37.6540889 185,39.4393238 C185,42.9158338 183.393701,45.9695251 180.181102,48.6003976 C176.968504,51.2312701 172.574803,53.2044244 167,54.5198607 L167,54.5198607 Z M255.194865,75.6454702 C261.194139,75.8546306 266.607286,74.4216764 271.434307,71.3466075 C276.261327,68.2715387 280.810521,64.2805508 285.081886,59.3736439 C286.964506,57.3406357 287.972682,54.4186043 288.105767,50.6075272 C288.175637,48.6067118 287.873637,47.0221995 287.199428,45.8539786 C286.525219,44.6857576 285.569142,44.0800671 284.331196,44.036907 C282.902798,43.987107 281.593912,44.609224 280.404538,45.9032583 C275.840827,50.9907587 272.208783,54.6559989 269.508406,56.8989788 C266.808029,59.1419588 264.505575,60.2302487 262.601043,60.1638486 C259.839473,60.0675684 258.525338,58.1138935 258.658639,54.3028239 C258.751949,51.6350752 259.848221,46.1882027 261.947455,37.9622065 C264.382356,28.3170192 265.66479,21.6365291 265.794758,17.9207363 C266.011372,11.7277482 263.024803,8.52370314 256.835088,8.30755354 C253.692618,8.19781605 250.202325,9.17332561 246.364228,11.2335504 C242.52613,13.2937751 238.564959,16.8282994 234.480714,21.8371231 C230.396469,26.8459467 226.63981,33.3924783 223.210737,41.4767177 C223.738274,37.2978212 224.33771,33.7891818 225.009045,30.9507997 C225.680379,28.1124175 226.55883,24.8042917 227.644396,21.0264222 C229.259416,15.7407248 230.093586,12.3356623 230.146906,10.8112344 C230.193561,9.47736007 229.844314,8.55895101 229.099164,8.05600727 C228.354014,7.55306352 227.029173,7.26839158 225.124642,7.20199145 C221.601259,7.07915122 218.841,7.62681904 216.843867,8.84499489 C214.846733,10.0631708 213.371326,12.0388314 212.417643,14.7719768 C208.504356,25.7965151 206.3304,37.5017479 205.897872,49.8877485 C205.605083,58.2721181 206.129335,64.395543 207.472047,68.2580726 C208.814758,72.1206023 211.295425,74.1147431 214.914028,74.2411075 C217.866045,74.3441943 220.059949,73.6335248 221.495721,72.1095987 C222.931492,70.5856725 224.251438,67.6029661 225.455559,63.1614794 C227.087241,57.3993984 229.161251,51.9389176 231.677591,46.7800371 C234.19393,41.6211566 236.626831,37.484841 238.976295,34.3710904 C241.325759,31.2573397 243.119463,29.7220444 244.357408,29.7652045 C245.404901,29.8017246 245.901987,30.5821986 245.848666,32.1066264 C245.768686,34.3932681 245.004749,38.5162263 243.556855,44.4755008 C241.983742,51.288946 241.15053,56.0295429 241.05722,58.6972916 C240.870599,64.032789 241.966079,68.1490297 244.343661,71.0460137 C246.721242,73.9429977 250.33831,75.4761499 255.194865,75.6454702 Z M319.224401,67.7508005 C322.558868,67.8087544 324.978232,67.0641746 326.482495,65.5170612 C327.986758,63.9699477 328.770637,61.3853125 328.834133,57.7631555 C328.946086,51.3767207 329.331737,45.6863228 329.991084,40.6919619 C330.650431,35.6976009 331.509928,30.1584621 332.569573,24.0745453 C333.099395,21.0325869 333.580329,18.0612906 334.012375,15.1606563 C334.444421,12.260022 334.681508,9.61820888 334.723104,7.23520772 C334.761372,5.04284666 334.337825,3.3907157 333.451971,2.27880626 C332.566117,1.16689682 331.075213,0.592884754 328.979265,0.556299852 C325.835343,0.501422498 323.466534,1.0802555 321.872849,2.29209338 C320.279164,3.50393125 319.076175,5.53302572 318.263883,8.37937678 C315.92729,16.634126 313.492914,23.6714765 310.960754,29.4914281 C308.428594,35.3113798 306.041421,39.6559425 303.799237,42.5251161 C301.557052,45.3942898 299.721431,46.8164579 298.292374,46.7916205 C297.244399,46.7734065 296.489337,46.3550502 296.027187,45.5365517 C295.565038,44.7180533 295.351508,43.3079449 295.386598,41.3062265 C295.445081,37.9700292 296.514752,31.314193 298.59561,21.3387176 C299.217361,18.4890549 300.035502,15.3090841 301.050031,11.7988053 C302.17487,7.43230295 302.743973,4.86777209 302.757341,4.10521271 C302.780734,2.77073381 302.393379,1.76283737 301.595277,1.08152341 C300.797174,0.400209444 299.350148,0.0413383898 297.254198,0.00491024543 C293.538649,-0.0596669196 290.812579,0.512721568 289.075989,1.72207571 C287.339398,2.93142985 285.969686,4.95762662 284.966853,7.80066603 C282.658666,14.4349766 280.976003,20.7226003 279.918865,26.6635372 C278.861726,32.6044741 278.269962,39.1494302 278.145176,46.2984337 C278.032036,52.7801969 279.300178,57.8795698 281.951055,61.5965778 C284.601932,65.3135858 288.166233,67.2106667 292.643939,67.2888254 C296.264213,67.3520175 299.701049,65.6475239 302.954435,62.1761569 C306.207821,58.70479 308.702795,53.6469837 310.439359,47.0027382 C310.185323,50.6215836 310.049114,52.9552658 310.030734,54.003785 C309.937161,59.3417006 310.564794,62.9520324 311.913632,64.8347803 C313.262471,66.7175283 315.699394,67.689535 319.224401,67.7508005 Z" id="Wenu" fill="#1A1A1A" fill-rule="nonzero"></path>
    </g>
</svg>